Coordinates
version=1
nRows=12
nColumns=24
inDegrees=yes

Units are S.I. units (second, meters, Newtons, ...)
Angles are in degrees.

endheader
time	pelvis_tilt	pelvis_list	pelvis_rotation	pelvis_tx	pelvis_ty	pelvis_tz	hip_flexion_r	hip_adduction_r	hip_rotation_r	knee_angle_r	ankle_angle_r	subtalar_angle_r	mtp_angle_r	hip_flexion_l	hip_adduction_l	hip_rotation_l	knee_angle_l	ankle_angle_l	subtalar_angle_l	mtp_angle_l	lumbar_extension	lumbar_bending	lumbar_rotation
      0.98416667	     -6.95429868	     -0.70056435	     -2.56598941	     -0.05717436	      1.02993939	      0.26857187	     -6.02047926	      2.74254524	     -1.84219290	    -16.79694417	     20.31565254	      3.84854771	      5.64751256	     31.38744562	     -1.19591571	     -0.11568907	     -6.68377023	      4.61930881	      5.89646245	      4.64917921	    -10.94049130	      1.85034444	      5.12065300
      0.98833333	     -6.91503249	     -0.62444397	     -2.62076087	     -0.05109106	      1.02932727	      0.26825383	     -6.09650618	      2.57224592	     -1.90519672	    -17.45739755	     20.17396848	      4.01332398	      8.69261450	     31.46645791	     -1.04671268	      0.13367487	     -7.49849107	      4.19782652	      5.49795353	      5.73685022	    -10.93032295	      1.71427907	      5.05904044
      0.99250000	     -6.89281786	     -0.52283125	     -2.67884402	     -0.04495221	      1.02871205	      0.26795293	     -6.12584480	      2.36947234	     -1.99748788	    -18.18645536	     20.06208651	      4.27430854	      8.75432555	     31.60155205	     -0.88792763	      0.20428299	     -8.42503606	      3.93996081	      5.41781398	      5.74306151	    -10.88354353	      1.50684156	      5.00069922
      0.99666667	     -6.86503164	     -0.42524632	     -2.73278726	     -0.03882163	      1.02815817	      0.26762655	     -6.13890147	      2.16782140	     -2.08548627	    -18.95450438	     19.92479153	      4.52761139	      8.85962511	     31.72814704	     -0.73024079	      0.32345114	     -9.36122833	      3.62792492	      5.21909267	      5.74927826	    -10.84992871	      1.32348928	      4.93315638
      1.00083333	     -6.81839867	     -0.32797315	     -2.76982266	     -0.03268931	      1.02766678	      0.26724213	     -6.15315605	      1.96014583	     -2.20639590	    -19.75929852	     19.77997557	      4.80805489	      9.08028692	     31.84045795	     -0.56260375	      0.47282291	    -10.32040787	      3.30824997	      4.96610394	      5.75835504	    -10.84624757	      1.15180053	      4.85458798
      1.00500000	     -6.79863565	     -0.21490747	     -2.82444360	     -0.02650632	      1.02720137	      0.26689424	     -6.11575278	      1.73469767	     -2.29051576	    -20.60183702	     19.50116372	      5.02178057	      9.25839641	     31.97264424	     -0.39469667	      0.58217671	    -11.28513820	      3.03562336	      4.75484176	      5.75918709	    -10.79442872	      0.93144870	      4.77648596
      1.00916667	     -6.74820652	     -0.10537961	     -2.86478929	     -0.02034839	      1.02683222	      0.26647991	     -6.08685286	      1.50541005	     -2.39222147	    -21.48081616	     19.17459805	      5.17794601	     12.61330877	     32.06177327	     -0.21448365	      0.77410969	    -12.23220062	      2.71630523	      4.36025640	      5.74022681	    -10.79107689	      0.74436418	      4.67441922
      1.01333333	     -6.69479755	      0.00184015	     -2.89530606	     -0.01414617	      1.02650056	      0.26605866	     -6.04141748	      1.27343105	     -2.52753418	    -22.40290317	     18.81466777	      5.44262378	     12.66875324	     32.17486351	     -0.04770574	      0.82455707	    -13.25187637	      2.54573684	      4.27408400	      5.73239173	    -10.78832227	      0.53811299	      4.61112209
      1.01750000	     -6.63842276	      0.11555515	     -2.93002259	     -0.00797141	      1.02621325	      0.26560233	     -5.95623035	      1.02228509	     -2.68204883	    -23.40666880	     18.50752693	      5.73329400	     12.81697181	     32.27083142	      0.12662571	      0.89901346	    -14.24662436	      2.34438784	      4.08402652	      5.70886912	    -10.79226766	      0.34838704	      4.52430222
      1.02166667	     -6.58346298	      0.23517893	     -2.96515149	     -0.00175118	      1.02599550	      0.26515105	     -5.85855394	      0.76429373	     -2.81010840	    -24.41777397	     18.04597837	      5.98517044	     12.97834551	     32.34972098	      0.30545890	      0.97886653	    -15.21803069	      2.20752532	      3.89600665	      5.68208321	    -10.78840122	      0.12534782	      4.43646046
      1.02583333	     -6.51385163	      0.36866487	     -3.00126671	      0.00444920	      1.02585075	      0.26466354	     -5.73433590	      0.47788739	     -2.96314238	    -25.49963435	     17.54613522	      6.16848525	     16.40313130	     32.38561613	      0.50467772	      1.08936328	    -16.13396906	      2.04168369	      3.58423971	      5.09234645	    -10.79888279	     -0.08791624	      4.31707281
      1.03000000	     -6.43214572	      0.47976463	     -3.02320446	      0.01064859	      1.02575417	      0.26415003	     -5.60254502	      0.20995902	     -3.13910931	    -26.61998684	     17.02978291	      6.46440822	     16.47496416	     32.42193940	      0.67735283	      1.11269213	    -17.08452782	      2.01035736	      3.51991320	      5.07746436	    -10.83614524	     -0.28336673	      4.25646635
